name ./resultDataOpenSim/trcMotMarkerGrf/sub09/grf-13-07.mot
datacolumns 19
datarows 15
range 0.48000000 0.53600000
endheader

                time	     ground_force_vx	     ground_force_vy	     ground_force_vz	     ground_force_px	     ground_force_py	     ground_force_pz	   l_ground_force_vx	   l_ground_force_vy	   l_ground_force_vz	   l_ground_force_px	   l_ground_force_py	   l_ground_force_pz	     ground_torque_x	     ground_torque_y	     ground_torque_z	   l_ground_torque_x	   l_ground_torque_y	   l_ground_torque_z	
          0.48000000	         13.57164885	        371.00179584	        -21.59761190	         -0.68899180	          0.00000000	          0.07702073	          0.00000000	          0.00000000	          0.00000000	          0.00000000	          0.00000000	          0.00000000	          0.00000000	          2.84200947	          0.00000000	          0.00000000	          0.00000000	          0.00000000	
          0.48400000	         15.92173495	        378.59843208	        -24.33682662	         -0.68724638	          0.00000000	          0.07787982	          0.00000000	          0.00000000	          0.00000000	          0.00000000	          0.00000000	          0.00000000	          0.00000000	          2.72745803	          0.00000000	          0.00000000	          0.00000000	          0.00000000	
          0.48800000	         18.79636645	        386.89468490	        -26.72266583	         -0.68562939	          0.00000000	          0.07868229	          0.00000000	          0.00000000	          0.00000000	          0.00000000	          0.00000000	          0.00000000	          0.00000000	          2.65887529	          0.00000000	          0.00000000	          0.00000000	          0.00000000	
          0.49200000	         22.06403427	        395.89881911	        -28.49504774	         -0.68409484	          0.00000000	          0.07941072	          0.00000000	          0.00000000	          0.00000000	          0.00000000	          0.00000000	          0.00000000	          0.00000000	          2.67854369	          0.00000000	          0.00000000	          0.00000000	          0.00000000	
          0.49600000	         25.55643803	        405.59800051	        -29.47911477	         -0.68261850	          0.00000000	          0.08005953	          0.00000000	          0.00000000	          0.00000000	          0.00000000	          0.00000000	          0.00000000	          0.00000000	          2.81925742	          0.00000000	          0.00000000	          0.00000000	          0.00000000	
          0.50000000	         29.12613480	        415.94649347	        -29.62801586	         -0.68117500	          0.00000000	          0.08063799	          0.00000000	          0.00000000	          0.00000000	          0.00000000	          0.00000000	          0.00000000	          0.00000000	          3.09609876	          0.00000000	          0.00000000	          0.00000000	          0.00000000	
          0.50400000	         32.68771724	        426.87611568	        -29.03809459	         -0.67973811	          0.00000000	          0.08116875	          0.00000000	          0.00000000	          0.00000000	          0.00000000	          0.00000000	          0.00000000	          0.00000000	          3.50129657	          0.00000000	          0.00000000	          0.00000000	          0.00000000	
          0.50800000	         36.22156020	        438.33767341	        -27.93375994	         -0.67828680	          0.00000000	          0.08168486	          0.00000000	          0.00000000	          0.00000000	          0.00000000	          0.00000000	          0.00000000	          0.00000000	          4.00366174	          0.00000000	          0.00000000	          0.00000000	          0.00000000	
          0.51200000	         39.75739476	        450.34432240	        -26.63002837	         -0.67686619	          0.00000000	          0.08219456	          0.00000000	          0.00000000	          0.00000000	          0.00000000	          0.00000000	          0.00000000	          0.00000000	          4.55298429	          0.00000000	          0.00000000	          0.00000000	          0.00000000	
          0.51600000	         43.37599476	        462.91991050	        -25.47016584	         -0.67559522	          0.00000000	          0.08269923	          0.00000000	          0.00000000	          0.00000000	          0.00000000	          0.00000000	          0.00000000	          0.00000000	          5.08848406	          0.00000000	          0.00000000	          0.00000000	          0.00000000	
          0.52000000	         47.19504846	        475.97422991	        -24.75789091	         -0.67447364	          0.00000000	          0.08323574	          0.00000000	          0.00000000	          0.00000000	          0.00000000	          0.00000000	          0.00000000	          0.00000000	          5.54957917	          0.00000000	          0.00000000	          0.00000000	          0.00000000	
          0.52400000	         51.29877835	        489.32463568	        -24.72376212	         -0.67333253	          0.00000000	          0.08386867	          0.00000000	          0.00000000	          0.00000000	          0.00000000	          0.00000000	          0.00000000	          0.00000000	          5.88684202	          0.00000000	          0.00000000	          0.00000000	          0.00000000	
          0.52800000	         55.69204116	        502.91297646	        -25.50656188	         -0.67203369	          0.00000000	          0.08461613	          0.00000000	          0.00000000	          0.00000000	          0.00000000	          0.00000000	          0.00000000	          0.00000000	          6.07087996	          0.00000000	          0.00000000	          0.00000000	          0.00000000	
          0.53200000	         60.32959279	        516.94197950	        -27.11530365	         -0.67065894	          0.00000000	          0.08541304	          0.00000000	          0.00000000	          0.00000000	          0.00000000	          0.00000000	          0.00000000	          0.00000000	          6.09724859	          0.00000000	          0.00000000	          0.00000000	          0.00000000	
          0.53600000	         65.13444937	        531.73029563	        -29.40091061	         -0.66942050	          0.00000000	          0.08615982	          0.00000000	          0.00000000	          0.00000000	          0.00000000	          0.00000000	          0.00000000	          0.00000000	          5.98648258	          0.00000000	          0.00000000	          0.00000000	          0.00000000	
